# xmcd
#
# Track frame offsets: 
#        150
#        15825
#        30675
#        49050
#        62850
#        72900
#        85125
#        100350
#        113325
#        128775
#        143925
#        156450
#        167100
#
# Disc length: 2421 seconds
#
# Revision: 3
# Processed by: cddbd v1.5.2PL0 Copyright (c) Steve Scherf et al.
# Submitted via: ExactAudioCopy v1.0b3
#
DISCID=aa09730d
DTITLE=John Hammond - You Can't Judge A Book By The Cover
DYEAR=1993
DGENRE=Blues
TTITLE0=You Can't Judge A Book By The Cover
TTITLE1=I Can't Be Satisfied
TTITLE2=Midnight Hour Blues
TTITLE3=I Hate To See You Go
TTITLE4=My Babe
TTITLE5=Shake For Me
TTITLE6=Long Distance Call
TTITLE7=My Starter Won't Start
TTITLE8=Southbound Blues
TTITLE9=I'm Leavin' You
TTITLE10=I Live The Life I Love
TTITLE11=Help Me
TTITLE12=Gamblin Blues
EXTD=Vanguard\n\nVCD-479472
EXTT0=
EXTT1=
EXTT2=
EXTT3=
EXTT4=
EXTT5=
EXTT6=
EXTT7=
EXTT8=
EXTT9=
EXTT10=
EXTT11=
EXTT12=
PLAYORDER=
